<svg width="22" height="22" viewBox="0 0 22 22" fill="none" xmlns="http://www.w3.org/2000/svg">
<g clip-path="url(#clip0_10_7)">
<path d="M19.25 2.75H2.75001C1.7371 2.75 0.916679 3.57042 0.916679 4.58333V7.33333H2.75001V4.58333H19.25V17.4167H12.8333V19.25H19.25C20.2629 19.25 21.0833 18.4296 21.0833 17.4167V4.58333C21.0833 3.57042 20.2629 2.75 19.25 2.75ZM0.916679 16.5V19.25H3.66668C3.66668 17.7329 2.43376 16.5 0.916679 16.5ZM0.916679 12.8333V14.6667C3.44668 14.6667 5.50001 16.72 5.50001 19.25H7.33335C7.33335 15.7071 4.4596 12.8333 0.916679 12.8333ZM0.916679 9.16667V11C5.47251 11 9.16668 14.6942 9.16668 19.25H11C11 13.6813 6.48543 9.16667 0.916679 9.16667Z" fill="white"/>
</g>
<defs>
<clipPath id="clip0_10_7">
<rect width="22" height="22" fill="white"/>
</clipPath>
</defs>
</svg>
